<svg xmlns="http://www.w3.org/2000/svg" width="550" height="463" overflow="hidden"><defs><clipPath id="a"><path d="M3876 468h550v463h-550z"/></clipPath></defs><g fill-rule="evenodd" clip-path="url(#a)" transform="translate(-3876 -468)"><path fill="#1D2088" d="M3876 930h550l-275.28-462Z"/><path fill="#FFF" d="M4082 817.567V899h138.97v-60.371h-42.15v27.483h-53.09v-42.688h67.74l29.53-37.731V720.93L4192 685h-78.1l-29.42 34.352v36.381h41.25v-20.612l9.81-11.263h31.89l11.39 12.277v46.629h-66.39Z"/><path fill="#FFF" d="M4195.44 874.939h-92.7v-21.61H3989c41.18-69.108 134.78-226.572 161.77-272.718 27.45 46.146 121.05 203.61 162.34 272.718h-117.67v21.61ZM4150.77 533c-28.46 48.06-186.3 313.913-215.77 364h31.39l7.31-11.818h357.41l6.42 11.818H4367c-29.93-50.087-187.76-315.827-216.23-364Z"/></g></svg>